<?xml version="1.0" standalone="no"?>
<svg xmlns:xlink="http://www.w3.org/1999/xlink" id="wave" style="transform:rotate(180deg); transition: 0.3s" viewBox="0 0 1440 100" version="1.1" xmlns="http://www.w3.org/2000/svg"><defs><linearGradient id="sw-gradient-0" x1="0" x2="0" y1="1" y2="0"><stop stop-color="rgba(255, 249, 234, 1)" offset="0%"/><stop stop-color="rgba(255, 249, 234, 1)" offset="100%"/></linearGradient></defs><path style="transform:translate(0, 0px); opacity:1" fill="url(#sw-gradient-0)" d="M0,30L20,31.7C40,33,80,37,120,41.7C160,47,200,53,240,58.3C280,63,320,67,360,56.7C400,47,440,23,480,15C520,7,560,13,600,21.7C640,30,680,40,720,48.3C760,57,800,63,840,56.7C880,50,920,30,960,31.7C1000,33,1040,57,1080,58.3C1120,60,1160,40,1200,36.7C1240,33,1280,47,1320,55C1360,63,1400,67,1440,56.7C1480,47,1520,23,1560,15C1600,7,1640,13,1680,25C1720,37,1760,53,1800,56.7C1840,60,1880,50,1920,38.3C1960,27,2000,13,2040,13.3C2080,13,2120,27,2160,28.3C2200,30,2240,20,2280,21.7C2320,23,2360,37,2400,46.7C2440,57,2480,63,2520,60C2560,57,2600,43,2640,45C2680,47,2720,63,2760,65C2800,67,2840,53,2860,46.7L2880,40L2880,100L2860,100C2840,100,2800,100,2760,100C2720,100,2680,100,2640,100C2600,100,2560,100,2520,100C2480,100,2440,100,2400,100C2360,100,2320,100,2280,100C2240,100,2200,100,2160,100C2120,100,2080,100,2040,100C2000,100,1960,100,1920,100C1880,100,1840,100,1800,100C1760,100,1720,100,1680,100C1640,100,1600,100,1560,100C1520,100,1480,100,1440,100C1400,100,1360,100,1320,100C1280,100,1240,100,1200,100C1160,100,1120,100,1080,100C1040,100,1000,100,960,100C920,100,880,100,840,100C800,100,760,100,720,100C680,100,640,100,600,100C560,100,520,100,480,100C440,100,400,100,360,100C320,100,280,100,240,100C200,100,160,100,120,100C80,100,40,100,20,100L0,100Z"/></svg>